<svg width="24" height="25" viewBox="0 0 24 25" fill="black" xmlns="http://www.w3.org/2000/svg">
<path d="M19.2828 18.4393C18.8591 17.4356 18.2442 16.524 17.4724 15.7552C16.703 14.9841 15.7915 14.3693 14.7883 13.9448C14.7794 13.9403 14.7704 13.9381 14.7614 13.9336C16.1607 12.9229 17.0704 11.2765 17.0704 9.41895C17.0704 6.3418 14.5772 3.84863 11.5001 3.84863C8.42291 3.84863 5.92974 6.3418 5.92974 9.41895C5.92974 11.2765 6.83941 12.9229 8.23873 13.9358C8.22974 13.9403 8.22076 13.9426 8.21178 13.9471C7.20552 14.3716 6.3026 14.9803 5.52769 15.7574C4.75663 16.5269 4.14186 17.4383 3.71734 18.4415C3.30029 19.4236 3.07537 20.4766 3.05474 21.5434C3.05414 21.5673 3.05835 21.5912 3.06711 21.6135C3.07587 21.6358 3.08901 21.6562 3.10576 21.6733C3.1225 21.6905 3.14252 21.7041 3.16461 21.7134C3.18671 21.7228 3.21045 21.7275 3.23443 21.7275H4.58209C4.68092 21.7275 4.75953 21.6489 4.76178 21.5523C4.8067 19.8184 5.50299 18.1944 6.73384 16.9636C8.00738 15.69 9.69869 14.9893 11.5001 14.9893C13.3014 14.9893 14.9927 15.69 16.2663 16.9636C17.4971 18.1944 18.1934 19.8184 18.2383 21.5523C18.2406 21.6512 18.3192 21.7275 18.418 21.7275H19.7657C19.7897 21.7275 19.8134 21.7228 19.8355 21.7134C19.8576 21.7041 19.8776 21.6905 19.8944 21.6733C19.9111 21.6562 19.9242 21.6358 19.933 21.6135C19.9418 21.5912 19.946 21.5673 19.9454 21.5434C19.9229 20.4697 19.7005 19.4253 19.2828 18.4393ZM11.5001 13.2822C10.4691 13.2822 9.49879 12.8802 8.76881 12.1502C8.03883 11.4202 7.63678 10.4499 7.63678 9.41895C7.63678 8.38799 8.03883 7.41768 8.76881 6.6877C9.49879 5.95771 10.4691 5.55566 11.5001 5.55566C12.531 5.55566 13.5013 5.95771 14.2313 6.6877C14.9613 7.41768 15.3633 8.38799 15.3633 9.41895C15.3633 10.4499 14.9613 11.4202 14.2313 12.1502C13.5013 12.8802 12.531 13.2822 11.5001 13.2822Z" fill="#000000" fill-opacity="0.5"/>
</svg>
